HIERARCHY
ROOT Hips
{
  OFFSET 13.6774 106.653 -34.4427
  CHANNELS 6 Xposition Yposition Zposition Zrotation Xrotation Yrotation
  JOINT ToSpine
  {
    OFFSET -2.69724 7.43032 -0.144315
    CHANNELS 3 Zrotation Xrotation Yrotation
    JOINT Spine
    {
      OFFSET -0.0310711 10.7595 1.96963
      CHANNELS 3 Zrotation Xrotation Yrotation
      JOINT Spine1
      {
        OFFSET 19.9056 3.91189 0.764692
        CHANNELS 3 Zrotation Xrotation Yrotation
        JOINT Neck
        {
          OFFSET 25.9749 7.03908 -0.130764
          CHANNELS 3 Zrotation Xrotation Yrotation
          JOINT Head
          {
            OFFSET 9.52751 0.295786 -0.907742
            CHANNELS 3 Zrotation Xrotation Yrotation
            End Site
            {
              OFFSET 16.4037 0.713936 2.7358
            }
          }
        }
        JOINT LeftShoulder
        {
          OFFSET 17.7449 4.33886 11.7777
          CHANNELS 3 Zrotation Xrotation Yrotation
          JOINT LeftArm
          {
            OFFSET 0.911315 1.27913 9.80584
            CHANNELS 3 Zrotation Xrotation Yrotation
            JOINT LeftForeArm
            {
              OFFSET 28.6126 1.18197 -3.53199
              CHANNELS 3 Zrotation Xrotation Yrotation
              JOINT LeftHand
              {
                OFFSET 27.5088 0.0218783 0.327423
                CHANNELS 3 Zrotation Xrotation Yrotation
                End Site
                {
                  OFFSET 18.6038 -0.000155887 0.382096
                }
              }
            }
          }
        }
        JOINT RightShoulder
        {
          OFFSET 17.1009 2.89543 -12.2328
          CHANNELS 3 Zrotation Xrotation Yrotation
          JOINT RightArm
          {
            OFFSET 1.4228 0.178766 -10.211
            CHANNELS 3 Zrotation Xrotation Yrotation
            JOINT RightForeArm
            {
              OFFSET 28.733 1.87905 2.64907
              CHANNELS 3 Zrotation Xrotation Yrotation
              JOINT RightHand
              {
                OFFSET 27.4588 0.290562 -0.101845
                CHANNELS 3 Zrotation Xrotation Yrotation
                End Site
                {
                  OFFSET 17.8396 -0.255518 -0.000602873
                }
              }
            }
          }
        }
      }
    }
  }
  JOINT LeftUpLeg
  {
    OFFSET -5.61296 -2.22332 -10.2353
    CHANNELS 3 Zrotation Xrotation Yrotation
    JOINT LeftLeg
    {
      OFFSET 2.56703 -44.7417 -7.93097
      CHANNELS 3 Zrotation Xrotation Yrotation
      JOINT LeftFoot
      {
        OFFSET 3.16933 -46.5642 -3.96578
        CHANNELS 3 Zrotation Xrotation Yrotation
        JOINT LeftToeBase
        {
          OFFSET 0.346054 -6.02161 12.8035
          CHANNELS 3 Zrotation Xrotation Yrotation
          End Site
          {
            OFFSET 0.134235 -1.35082 5.13018
          }
        }
      }
    }
  }
  JOINT RightUpLeg
  {
    OFFSET -5.7928 -1.72406 10.6446
    CHANNELS 3 Zrotation Xrotation Yrotation
    JOINT RightLeg
    {
      OFFSET -2.57161 -44.7178 -7.85259
      CHANNELS 3 Zrotation Xrotation Yrotation
      JOINT RightFoot
      {
        OFFSET -3.10148 -46.5936 -4.03391
        CHANNELS 3 Zrotation Xrotation Yrotation
        JOINT RightToeBase
        {
          OFFSET -0.0828122 -6.13587 12.8035
          CHANNELS 3 Zrotation Xrotation Yrotation
          End Site
          {
            OFFSET -0.131328 -1.35082 5.13018
          }
        }
      }
    }
  }
}
MOTION
Frames: 21
Frame Time: 0.03333333333333333
0.0000 93.1000 0.0000 -46.8576 -28.6398 -171.1129 -70.9530 -0.1204 87.9536 110.2050 68.0736 -25.9554 -4.0553 17.8157 4.8813 -162.2344 31.3768 -179.7913 -152.7214 71.9989 -167.1295 -0.2684 -15.2467 -32.1167 -78.7987 46.2130 -69.6586 23.3885 5.5341 -76.3385 -0.1877 0.0211 0.2217 -3.0528 5.3046 49.3238 -64.3556 -32.8485 66.3304 8.8736 -13.5692 37.6446 -0.2139 0.0634 0.1232 -54.5315 4.9029 88.3353 -5.9339 58.1333 -4.7252 -8.0170 4.6717 0.9791 0.3247 -5.1726 8.4319 -6.3942 -7.4244 78.1603 5.8083 70.6108 -12.0640 -5.1008 -19.3017 1.4817 1.2241 -8.7897 -12.8022 
0.0000 93.1000 0.0000 -48.5492 -23.0627 -173.8203 -70.9643 -0.1415 87.9136 122.6303 67.3127 -37.4116 -5.3939 19.6819 4.4829 -166.6826 29.7871 -181.3477 -147.9182 69.7810 -170.6516 -0.0629 -15.3128 -33.0074 -75.3293 48.8767 -71.2454 15.4985 7.0020 -64.1586 -0.0956 -0.0250 0.5810 -2.9704 5.4270 50.2758 -67.3615 -28.5012 73.2944 11.7764 -15.3404 40.8019 -0.0601 -0.0905 0.2631 -46.7239 4.1482 90.0001 -16.0044 75.0935 2.6462 -8.3657 5.1131 1.2411 1.5970 -7.9034 8.3216 -11.3414 -2.1192 80.3521 6.8935 69.4635 -8.9299 -8.4473 -18.8540 1.4310 2.3117 -19.1186 -22.6095 
0.0000 93.1000 0.0000 -49.3237 -18.2874 -177.4697 -71.0286 -0.1042 87.8862 130.7966 66.6357 -44.5554 -5.1466 22.2019 2.6305 -170.3987 28.5465 -179.4886 -147.0729 68.2929 -173.3031 -0.1200 -15.5548 -33.7366 -70.3693 51.7199 -70.0764 7.5200 5.8504 -53.4070 0.0397 0.1146 0.6489 -2.9872 5.9868 49.5818 -72.3569 -26.3091 80.6805 14.7289 -14.1857 49.2003 0.1836 -0.1560 0.0165 -34.3202 5.8578 92.5325 -122.5214 83.6095 111.0099 -6.9809 3.6571 0.9416 1.1921 -7.0842 10.8563 -18.0189 2.9466 81.8324 6.0366 66.2560 -3.6938 -9.6134 -23.8635 1.5566 3.1519 -19.5516 -29.9343 
0.0000 93.1000 0.0000 -48.4565 -13.8045 -177.8533 -71.0418 -0.0783 87.9315 133.9246 68.2731 -46.8839 -6.0082 23.9317 1.8528 -171.6975 28.2502 -180.5410 -148.0932 67.7513 -172.3709 -0.2625 -15.0598 -33.2509 -59.8572 57.0098 -72.4315 4.9946 4.2424 -48.6277 0.2651 0.1708 -0.2463 -2.5045 6.1998 45.2959 -78.0519 -30.8882 86.2982 25.3656 -13.3235 64.5827 -0.2143 -0.0964 -0.3702 -18.3912 7.1997 92.9893 -161.1082 74.2439 152.0938 -4.6799 5.3540 0.7026 0.8203 -5.5550 6.9886 -25.4772 4.9095 83.5017 5.3339 62.1420 -2.1924 -4.9570 -32.3579 1.3799 1.7246 -6.2391 -21.9588 
0.0000 93.1000 0.0000 -46.1693 -11.1730 176.4548 -70.9932 0.1175 87.9491 131.1422 70.1454 -48.3519 -6.6608 26.2829 1.6565 -169.8526 28.6202 177.3870 -143.2062 67.3992 -175.1820 -0.2639 -13.6195 -30.5961 -49.2107 62.1357 -71.8369 5.8023 3.4441 -52.0975 -0.3639 0.4120 -0.3746 -2.5868 6.1568 41.0883 -78.4986 -36.6992 92.9048 31.6262 -6.1144 79.7989 -0.8086 0.3179 -0.1381 -3.4985 7.1757 96.5771 -162.9791 73.2639 157.3112 -2.5226 3.9526 -0.3080 0.2325 -4.0217 6.7958 -32.8341 3.1860 87.2135 3.5997 56.6435 0.9552 -4.8550 -32.5344 1.8666 2.1384 -10.5235 -18.2236 
0.0000 93.1000 0.0000 -48.1629 -8.1570 173.7089 -70.9927 0.0674 87.9929 132.6050 72.7808 -51.4590 -7.3807 27.9606 1.7468 -168.6079 28.9756 177.3026 -146.5049 68.0185 -175.2323 0.1545 -14.1418 -29.0231 -42.7643 66.8798 -71.4214 5.6440 3.3675 -56.9350 -0.0383 0.0857 0.0005 -2.3420 6.2652 37.5715 -77.1926 -40.4718 98.1687 36.2277 0.6566 90.3057 -0.0902 -0.1468 -0.0844 3.6324 6.8247 96.6491 -151.3951 79.6796 145.6192 -3.0407 3.9097 0.1873 0.8575 -5.5051 8.0748 -43.9987 1.2540 90.2400 2.6532 46.8160 4.0199 -5.6533 -20.7380 1.3898 2.5236 -24.0205 -9.8656 
0.0000 93.1000 0.0000 -49.9972 -6.3204 172.6562 -70.9520 0.0288 88.0140 135.2243 74.8078 -54.5513 -8.4501 29.1609 2.0204 -165.8362 29.8288 175.9491 -146.8517 68.5085 -176.3155 0.3514 -14.8807 -26.2011 -33.2944 71.0429 -75.6052 5.6310 2.5170 -60.7510 0.0005 -0.0969 0.0446 -2.1073 7.1837 35.7690 -76.0554 -41.6962 99.4446 38.5086 6.1848 97.7980 -0.0197 -0.2708 -0.1917 6.4818 5.3119 95.5491 -39.0959 82.5259 29.1449 -5.4767 6.8902 0.9536 1.1142 -7.8952 9.1848 -54.7979 -0.2704 90.5747 1.4662 37.4293 4.4977 -3.0352 -0.4904 0.0366 5.0506 -34.3030 3.8422 
0.0000 93.1000 0.0000 -49.6076 -5.7372 173.1690 -70.9635 -0.0076 88.0384 127.8704 77.0251 -45.3612 -5.8484 30.3728 0.4538 -165.5783 29.1818 177.1648 -149.8919 68.8829 -175.1746 0.4835 -15.1826 -25.9204 -29.7868 73.0779 -77.8570 5.0393 2.0449 -63.9476 0.0826 -0.3538 -0.3718 -1.9433 7.2726 33.9702 -75.1857 -42.2580 99.0976 37.0231 9.0051 101.0975 0.3462 -0.4651 0.2820 5.5227 3.5736 95.4243 -8.8799 65.0851 -4.3459 -8.6687 8.8067 1.8941 1.5755 -6.7295 9.9152 -62.3132 -2.9327 84.9232 -1.3974 31.4570 16.2305 4.8591 16.7058 -2.2928 2.3286 -19.6824 2.7972 
0.0000 93.1000 0.0000 -48.9910 -3.9082 174.6633 -70.9847 0.0122 87.9845 122.5127 78.5576 -36.3376 -4.2857 30.6046 -0.8344 -163.4411 28.9515 176.0433 -153.1505 68.8695 -170.9969 0.3796 -14.9346 -25.1400 -32.6227 74.8758 -75.9740 5.5360 1.9942 -65.1116 -0.0654 -0.2678 -0.2842 -1.8848 7.3567 33.3509 -75.2870 -41.2378 96.5729 32.2873 7.2195 100.8840 0.1184 -0.3802 0.3643 1.5201 2.9385 96.6848 -4.4373 45.8384 -15.2966 -11.7992 12.0053 2.5506 3.2316 -9.6661 11.9741 -68.1875 -1.3911 84.6714 -2.1522 29.5779 23.1768 2.0342 23.1634 -2.3988 2.3701 -10.1676 -17.6942 
0.0000 93.1000 0.0000 -52.0029 -3.1615 176.1866 -70.9649 0.0367 87.9749 114.3499 79.3577 -27.5756 -3.5581 29.8866 -0.4004 -161.2491 28.4427 174.7325 -151.7961 68.1055 -173.8780 0.3196 -13.8415 -25.9371 -46.5063 73.6305 -63.9646 4.9321 1.9198 -66.7807 -0.0056 -0.1912 -0.0533 -1.9386 6.5701 35.2072 -76.1556 -38.4069 92.5218 29.2820 2.9012 95.8085 -0.0781 -0.2347 0.0638 -1.3956 3.6729 101.5152 -3.5508 37.8979 -16.1018 -12.5989 10.8607 2.4416 5.1139 -14.2031 10.3133 -69.3911 1.7967 91.4471 0.2942 38.6531 -1.1280 -1.3776 17.9658 -1.0578 -0.2194 -6.5683 -2.9732 
0.0000 93.1000 0.0000 -53.0607 -2.9703 177.7485 -70.9742 0.0897 87.9258 113.2748 78.2358 -27.4009 -4.1461 29.2054 0.8120 -158.4457 27.9334 174.8591 -153.8787 67.7918 -168.8777 -0.0097 -13.3294 -28.6429 -55.7517 69.8666 -58.9074 3.8532 0.5266 -66.7831 -0.1328 0.1389 -0.1357 -1.7562 6.7429 36.1332 -79.1395 -36.8747 85.6670 28.1842 -0.8621 87.9570 -0.2759 0.1302 -0.2999 -4.4043 4.4486 106.3336 -4.6308 40.7572 -12.3706 -12.0221 8.4088 1.7080 6.0901 -16.3042 11.2640 -68.0513 4.0127 90.0256 1.3008 52.8525 -1.8170 0.2585 15.9999 -1.1202 1.7748 -4.7037 -12.5995 
0.0000 93.1000 0.0000 -56.0563 -3.9479 178.4600 -71.0076 0.1574 87.8893 117.2756 76.2368 -31.6472 -4.5101 27.2220 1.8528 -155.4374 26.6445 173.9157 -155.7113 66.9922 -165.8252 -0.5614 -14.2308 -31.0136 -67.7537 64.8607 -52.8306 2.5255 0.9781 -67.0882 0.1412 0.4347 -0.5972 -1.9707 6.7037 39.9565 -80.1207 -34.1260 80.4095 26.6925 -5.5709 78.3377 -0.2714 0.5520 -0.7250 -10.8524 3.2459 106.8476 -4.8900 45.9315 -16.7864 -9.8603 4.6548 0.8874 6.0878 -15.6660 8.5746 -64.7785 4.0913 87.0649 4.9426 69.9656 -10.6406 -1.5205 16.9805 -0.9343 1.6327 -4.0500 -10.6013 
0.0000 93.1000 0.0000 -60.0079 -2.6930 176.4301 -71.0588 -0.0236 87.8975 117.2667 74.8821 -35.2704 -3.7883 25.4833 1.9931 -153.4343 24.6962 170.7702 -148.7983 65.2609 -168.7037 0.0937 -13.7943 -32.3470 -74.8817 58.6268 -50.6793 2.1793 0.9638 -66.7679 -0.1113 -0.2912 0.4604 -2.2045 6.2074 43.1797 -80.5247 -31.2350 76.9980 23.8552 -10.2576 69.1793 0.1194 -0.2665 0.1027 -17.9315 -0.3784 105.4587 -5.6163 52.9374 -14.5221 0.2669 -8.0507 -0.8200 -0.7195 -1.2347 7.7991 -58.5542 1.5699 86.3673 67.3106 85.2881 -76.2786 -4.0926 13.7945 -0.7103 1.9285 -6.4735 -12.8541 
0.0000 93.1000 0.0000 -60.3836 -3.2298 172.4772 -70.9813 -0.0308 87.9679 105.2318 74.7119 -28.4421 -2.1851 24.5495 1.9759 -154.3597 22.9745 171.3131 -154.4028 62.8038 -164.0978 -0.3617 -14.1305 -33.8647 -80.6118 51.7962 -54.6876 1.9521 0.9202 -67.0600 -0.0920 -0.4031 -0.4623 -2.3548 6.0860 44.4888 -77.0984 -30.8595 76.3400 21.0402 -13.8551 57.8528 -0.0323 -0.2759 0.1879 -22.3162 -4.7479 105.2601 -7.1192 58.2083 -10.9010 4.6623 -15.4323 -2.1184 0.5201 -7.5243 16.8384 -44.2563 -0.9450 88.8504 166.6895 71.7114 176.9869 -10.0869 12.4161 0.6934 0.7550 -10.7988 -3.2708 
0.0000 93.1000 0.0000 -59.3983 -5.0117 173.8986 -70.9718 -0.0274 87.9458 101.5984 72.2038 -24.9711 -2.0098 21.3908 2.9355 -157.4019 21.8306 171.3378 -153.1035 61.1799 -167.5022 -0.6789 -15.7209 -33.8437 -85.0812 45.9283 -59.7021 3.5749 0.7115 -67.7960 0.2762 -0.3220 -0.5236 -2.5904 6.0426 46.2701 -75.0862 -29.9402 73.2945 21.1162 -18.8421 51.1450 -0.0711 -0.2170 -0.1860 -26.6466 -7.7745 101.4625 -8.1391 59.9000 -13.0107 3.4071 -18.6623 -2.4909 4.0583 -12.7901 21.4585 -27.2329 -1.0840 88.1090 170.4382 62.6056 174.5603 -13.6184 13.8329 1.4023 1.1165 -15.4315 -2.2939 
0.0000 93.1000 0.0000 -60.2490 -4.9425 177.0222 -70.9568 -0.1544 87.9378 103.0975 70.0614 -24.5452 -3.2237 19.1917 2.4197 -154.3735 19.8471 170.4253 -151.3368 59.9538 -166.0336 -0.0539 -15.3957 -31.9898 -87.2204 42.8783 -64.1572 3.8846 0.7180 -71.5967 0.1871 -0.9001 0.1181 -2.7269 5.2019 48.2790 -72.2134 -30.2006 66.3867 21.0379 -20.6197 48.8692 0.1726 -0.8535 0.4753 -35.4700 -5.6453 99.4954 -7.4390 59.0697 -17.2688 1.7506 -18.8976 -1.9414 6.6721 -16.6746 21.2280 -16.3203 1.1368 87.0883 170.0970 64.9883 174.3011 -12.0986 11.5778 1.1081 1.3247 -14.7553 -2.1409 
0.0000 93.1000 0.0000 -61.5191 -4.7438 177.6892 -71.0085 -0.2283 87.8318 101.2117 68.4982 -21.4553 -3.9466 16.9986 2.1082 -154.3621 17.1891 169.7094 -148.5001 57.1894 -173.8003 0.8247 -13.7097 -29.8370 -90.8168 42.1286 -64.7885 7.5755 0.6372 -78.7364 -0.3367 -0.8832 1.6579 -2.6932 4.4269 49.3973 -68.0019 -30.9886 62.6797 17.1102 -18.3779 45.9905 0.3377 -0.7640 1.3968 -47.3514 -5.6267 96.7236 -6.3610 49.8234 -16.4745 -0.7934 -12.7566 -1.2443 8.3658 -19.3825 13.9290 -9.4781 1.1665 87.4021 165.7478 75.1386 -178.3122 -11.6939 10.6562 1.3909 2.3001 -16.4507 -4.5732 
0.0000 93.1000 0.0000 -61.1525 -5.0792 -180.0388 -70.9933 -0.2542 87.8786 95.0350 66.7031 -13.1430 -2.3846 14.2104 3.8733 -154.0681 16.8529 172.1814 -154.3378 55.6425 -168.2209 0.6871 -14.4654 -29.0767 -91.7052 41.7088 -65.9897 8.6697 -0.0532 -85.5478 -0.2987 -0.6940 0.0046 -1.9619 5.3839 47.9701 -65.9059 -33.4894 57.6625 15.6564 -17.0877 44.7494 0.5418 -0.8105 0.1151 -57.3335 -3.9969 93.0853 -4.4036 41.8309 -14.7278 -3.4660 -0.4614 0.1972 9.5661 -21.6776 4.7848 -7.9604 2.2396 86.0723 47.3953 85.3613 -54.7993 -6.3309 9.2164 0.1515 2.4850 -17.2239 -14.3139 
0.0000 93.1000 0.0000 -61.4875 -6.0932 -179.2155 -70.9940 -0.1461 87.8615 88.3027 65.2534 -5.6354 0.2526 13.3312 3.9629 -153.2631 14.6714 170.5654 -146.5699 53.1375 -177.3672 0.3099 -14.2408 -27.9961 -92.2326 41.8375 -65.9176 9.4750 -0.9129 -92.7976 -0.1263 -0.2384 -0.2240 -2.0102 5.2249 47.9623 -65.3002 -36.2293 52.3753 12.4435 -13.8203 44.0837 0.1426 -0.2395 0.0252 -66.4827 -2.8135 92.8186 -4.3880 33.9946 -17.9922 -9.7001 12.4680 1.9780 6.9627 -16.6228 -1.4813 -9.2898 1.7265 85.2617 3.4672 65.8688 -10.4148 -5.0344 11.2737 -0.0349 2.3697 -15.8873 -12.8908 
0.0000 93.1000 0.0000 -60.2735 -5.8925 -177.7373 -71.0131 -0.1232 87.8412 77.1521 63.3420 4.4646 2.3597 12.3813 4.7731 -154.2983 13.7369 171.3145 -147.9077 52.3991 -177.7383 0.0402 -13.8380 -27.9435 -90.7988 42.6844 -65.9005 8.7771 -2.2115 -99.6393 0.0057 -0.0745 -0.3489 -1.8858 4.9111 45.2312 -70.0073 -38.0654 45.6868 14.0495 -13.5889 45.8410 -0.1145 -0.1412 0.0014 -71.2115 -0.8229 93.1137 -2.9295 31.5530 -20.9807 -11.8560 15.9584 2.7232 0.5735 -4.0825 6.5125 -12.4012 1.8764 84.8014 0.4554 40.6598 -1.1769 -2.8175 13.2763 -0.6349 1.8960 -13.3103 -21.7522 
0.0000 93.1000 0.0000 -59.3167 -6.7982 -178.4841 -71.0085 -0.1909 87.8112 66.0133 61.4956 14.4094 4.9814 11.2690 4.8710 -156.1530 12.8081 171.3261 -150.3629 50.7761 -179.2735 0.4202 -12.8202 -26.0876 -87.9497 44.8712 -66.7523 10.7388 -3.2943 -103.6772 0.0657 -0.4219 0.1512 -1.5877 5.0283 42.2007 -72.2467 -41.1892 42.5443 15.0764 -14.8405 47.1611 0.0908 -0.5274 0.2092 -72.0857 -0.6866 91.4231 -2.9562 37.8341 -11.4026 -9.2733 9.7492 2.0389 -0.1447 -2.7596 6.7038 -16.3510 -0.1306 86.3277 1.6394 18.8635 -1.2233 3.8770 17.2488 -2.3084 1.9822 -8.1022 -21.7570 
